<svg xmlns="http://www.w3.org/2000/svg" viewBox="0 0 150 150"><defs><style>.a{fill:#6ecff5;}.b{fill:#2babe2;}.c{fill:#fff;}.d{fill:#a7a9ac;}.e{fill:#ec2127;}</style></defs><path class="a" d="M.5,75A74.5,74.5,0,0,0,75,149.5V.5A74.51,74.51,0,0,0,.5,75Z"/><path class="b" d="M75,.5v149A74.5,74.5,0,0,0,75,.5Z"/><path class="c" d="M142.15,75A67.15,67.15,0,1,1,75,7.85,67.14,67.14,0,0,1,142.15,75Z"/><path class="d" d="M79.2,19.12a4.2,4.2,0,1,1-4.2-4.2,4.2,4.2,0,0,1,4.2,4.2Z"/><path class="d" d="M79.2,130.87a4.2,4.2,0,1,1-4.2-4.2,4.2,4.2,0,0,1,4.2,4.2Z"/><path class="d" d="M50.7,24.51A4.2,4.2,0,1,1,45,23a4.2,4.2,0,0,1,5.74,1.54Z"/><path class="d" d="M106.57,121.29a4.2,4.2,0,1,1-5.73-1.54,4.2,4.2,0,0,1,5.73,1.54Z"/><path class="c" d="M75,27.78,75,75,33.71,97.9A47.22,47.22,0,1,0,75,27.78Z"/><path class="a" d="M75,27.78h0A47.21,47.21,0,0,0,33.71,97.9L75,75l0-47.22Z"/><path class="d" d="M28.71,43.43A4.19,4.19,0,1,1,23,45a4.19,4.19,0,0,1,5.73-1.53Z"/><path class="d" d="M125.49,99.3a4.2,4.2,0,1,1-5.74,1.53,4.2,4.2,0,0,1,5.74-1.53Z"/><polygon class="e" points="77.29 74.08 72.77 74.08 72.77 32.37 77.29 32.37 77.29 74.08 77.29 74.08"/><polygon class="e" points="74.31 71.96 76.57 75.88 33.07 100.99 30.81 97.07 74.31 71.96 74.31 71.96"/><path class="d" d="M19.13,70.8a4.2,4.2,0,1,1-4.2,4.2,4.2,4.2,0,0,1,4.2-4.2Z"/><path class="d" d="M130.87,70.8a4.2,4.2,0,1,1-4.19,4.2,4.19,4.19,0,0,1,4.19-4.2Z"/><path class="d" d="M24.51,99.3A4.2,4.2,0,1,1,23,105a4.21,4.21,0,0,1,1.53-5.73Z"/><path class="d" d="M121.29,43.43a4.2,4.2,0,1,1-1.54,5.73,4.18,4.18,0,0,1,1.54-5.73Z"/><path class="d" d="M43.43,121.29A4.2,4.2,0,1,1,45,127a4.19,4.19,0,0,1-1.54-5.73Z"/><path class="d" d="M99.3,24.51a4.2,4.2,0,1,1,1.54,5.73,4.2,4.2,0,0,1-1.54-5.73Z"/><path class="a" d="M84.84,75A9.84,9.84,0,1,1,75,65.16,9.85,9.85,0,0,1,84.84,75Z"/><path class="c" d="M79.85,75A4.85,4.85,0,1,1,75,70.15,4.85,4.85,0,0,1,79.85,75Z"/></svg>