<svg xmlns="http://www.w3.org/2000/svg" viewBox="0 0 150 150"><defs><style>.a{fill:#a7a9ac;}.b{fill:#d1d3d4;}.c{fill:#f2f2f4;}.d{fill:#fbbc85;}.e{fill:#808285;}.f{fill:#fdd09e;}.g{fill:#27a9e1;}.h{fill:#faa51b;}</style></defs><polygon class="a" points="149 126.7 16.04 126.7 16.04 41.71 149 41.71 149 126.7 149 126.7"/><polygon class="b" points="142.48 118.04 9.52 118.04 9.52 33.05 142.48 33.05 142.48 118.04 142.48 118.04"/><polygon class="c" points="133.96 108.29 1 108.29 1 23.3 133.96 23.3 133.96 108.29 133.96 108.29"/><path class="d" d="M51.93,82.1c-2.87-2.69,0-15.24,0-15.24h-16s2.88,12.55,0,15.24c-2.14,2-18.3,3-19.77,5.19S15,96.85,15,96.85H72.82s.5-7.84-1.11-9.74-17.63-3-19.78-5Z"/><path class="e" d="M58.5,49.31A14.58,14.58,0,1,1,43.92,34.74,14.58,14.58,0,0,1,58.5,49.31Z"/><path class="f" d="M34.1,59.58a2.56,2.56,0,0,1-2.55,2.56h0A2.56,2.56,0,0,1,29,59.58V55.11a2.56,2.56,0,0,1,2.56-2.55h0a2.55,2.55,0,0,1,2.55,2.55v4.47Z"/><path class="f" d="M58.81,59.58a2.56,2.56,0,0,1-2.55,2.56h0a2.56,2.56,0,0,1-2.56-2.56V55.11a2.55,2.55,0,0,1,2.56-2.55h0a2.55,2.55,0,0,1,2.55,2.55v4.47Z"/><path class="f" d="M57.08,56.91C57.08,65.82,51.19,73,43.92,73S30.76,65.82,30.76,56.91s5.9-16.12,13.16-16.12S57.08,48,57.08,56.91Z"/><path class="g" d="M71.71,87.11c-1-1.35-7.57-2.12-11.34-2.85-1.74-.34-3.44-.67-4.79-1.05-8.26,4.17-17.24,4.06-23-.08-1.16.36-2.62.68-4.15,1-4,.84-11.17,1.68-12.31,3.16-1.48,1.94-1.1,9.56-1.1,9.56h57.8s.43-7.77-1.11-9.74Z"/><polygon class="e" points="46.21 37.63 53.7 43.3 52.42 51.58 40.54 40.06 46.21 37.63 46.21 37.63"/><polygon class="g" points="119.71 58.38 79.31 58.38 79.31 37.63 119.71 37.63 119.71 58.38 119.71 58.38"/><polygon class="h" points="79.31 75.55 119.71 75.55 119.71 69.08 79.31 69.08 79.31 75.55 79.31 75.55"/><polygon class="e" points="79.31 86.28 119.71 86.28 119.71 79.81 79.31 79.81 79.31 86.28 79.31 86.28"/><polygon class="e" points="79.31 96.85 119.71 96.85 119.71 90.38 79.31 90.38 79.31 96.85 79.31 96.85"/></svg>