<svg xmlns="http://www.w3.org/2000/svg" viewBox="0 0 150 150"><defs><style>.a{fill:#1d75bc;}.b{fill:#fbb041;}.c{fill:#bcbec0;}</style></defs><path class="a" d="M137.21,120.73H12.71A11.71,11.71,0,0,1,1,109V41A11.71,11.71,0,0,1,12.71,29.27h124.5A11.72,11.72,0,0,1,148.93,41v68a11.72,11.72,0,0,1-11.72,11.71Z"/><polygon class="b" points="149 101.82 1 101.82 1 87.99 149 87.99 149 101.82 149 101.82"/><polygon class="c" points="44.48 61.31 12.71 61.31 12.71 43.95 44.48 43.95 44.48 61.31 44.48 61.31"/><polygon class="c" points="133.62 47.55 76.02 47.55 76.02 44.37 133.62 44.37 133.62 47.55 133.62 47.55"/><polygon class="c" points="133.62 56.01 76.02 56.01 76.02 52.84 133.62 52.84 133.62 56.01 133.62 56.01"/><polygon class="c" points="133.62 64.48 76.02 64.48 76.02 61.31 133.62 61.31 133.62 64.48 133.62 64.48"/></svg>