<svg xmlns="http://www.w3.org/2000/svg" viewBox="0 0 150 150"><defs><style>.a{fill:#aea3b2;}.b{fill:#59595b;}.c{fill:#cccdce;}.d{fill:#ef4237;}.e{fill:#1d75bc;}.f{fill:#8ec640;}.g{fill:#6d6e71;}.h{fill:#bcbec0;}</style></defs><path class="a" d="M130,32.69H71V52.92H41.51V29.44H59.37V8.11H19.19V29.44H36.55V52.92H14.64v82H139.08l0-93.14A9.11,9.11,0,0,0,130,32.69Z"/><polygon class="b" points="131.97 53.26 76.74 53.26 76.74 38.21 131.97 38.21 131.97 53.26 131.97 53.26"/><polygon class="b" points="56.4 25.46 22.33 25.46 22.33 11.93 56.4 11.93 56.4 25.46 56.4 25.46"/><polygon class="c" points="51.93 78.31 42.51 78.31 42.51 71.86 51.93 71.86 51.93 78.31 51.93 78.31"/><polygon class="c" points="65.82 78.31 56.4 78.31 56.4 71.86 65.82 71.86 65.82 78.31 65.82 78.31"/><polygon class="c" points="79.71 78.31 70.29 78.31 70.29 71.86 79.71 71.86 79.71 78.31 79.71 78.31"/><polygon class="c" points="51.93 88.23 42.51 88.23 42.51 81.78 51.93 81.78 51.93 88.23 51.93 88.23"/><polygon class="c" points="65.82 88.23 56.4 88.23 56.4 81.78 65.82 81.78 65.82 88.23 65.82 88.23"/><polygon class="c" points="79.71 88.23 70.29 88.23 70.29 81.78 79.71 81.78 79.71 88.23 79.71 88.23"/><polygon class="c" points="51.93 98.15 42.51 98.15 42.51 91.7 51.93 91.7 51.93 98.15 51.93 98.15"/><polygon class="c" points="65.82 98.15 56.4 98.15 56.4 91.7 65.82 91.7 65.82 98.15 65.82 98.15"/><polygon class="c" points="79.71 98.15 70.29 98.15 70.29 91.7 79.71 91.7 79.71 98.15 79.71 98.15"/><polygon class="d" points="96.58 78.8 87.15 78.8 87.15 72.35 96.58 72.35 96.58 78.8 96.58 78.8"/><polygon class="e" points="110.47 78.8 101.05 78.8 101.05 72.35 110.47 72.35 110.47 78.8 110.47 78.8"/><polygon class="e" points="124.36 78.8 114.94 78.8 114.94 72.35 124.36 72.35 124.36 78.8 124.36 78.8"/><polygon class="d" points="96.58 88.73 87.15 88.73 87.15 82.28 96.58 82.28 96.58 88.73 96.58 88.73"/><polygon class="f" points="110.47 88.73 101.05 88.73 101.05 82.28 110.47 82.28 110.47 88.73 110.47 88.73"/><polygon class="f" points="124.36 88.73 114.94 88.73 114.94 82.28 124.36 82.28 124.36 88.73 124.36 88.73"/><polygon class="f" points="96.58 98.65 87.15 98.65 87.15 92.2 96.58 92.2 96.58 98.65 96.58 98.65"/><polygon class="f" points="110.47 98.65 101.05 98.65 101.05 92.2 110.47 92.2 110.47 98.65 110.47 98.65"/><polygon class="f" points="124.36 98.65 114.94 98.65 114.94 92.2 124.36 92.2 124.36 98.65 124.36 98.65"/><polygon class="c" points="123.53 66.15 115.27 66.15 115.27 58.88 123.53 58.88 123.53 66.15 123.53 66.15"/><path class="g" d="M149,141.89H1v-19.4A9.54,9.54,0,0,1,10.54,113H139.46a9.54,9.54,0,0,1,9.54,9.54v19.4Z"/><polygon class="h" points="88.64 128.91 62.35 128.91 62.35 123.95 88.64 123.95 88.64 128.91 88.64 128.91"/></svg>