<svg xmlns="http://www.w3.org/2000/svg" viewBox="0 0 150 150"><defs><style>.a{fill:#09a4a8;}.b{fill:#00b1be;}.c{fill:#fff;}.d{fill:#019ca0;}.e{fill:#039191;}.f{fill:#d3ab6c;}.g{fill:#ded233;}</style></defs><path class="a" d="M149,62.42V128A18.94,18.94,0,0,1,130.05,147H75V62.42Z"/><path class="b" d="M75,62.42V147H19.93A18.66,18.66,0,0,1,7.61,142.4l-2-2A18.78,18.78,0,0,1,1,128V62.42Z"/><polygon class="c" points="46.88 90.23 29.23 90.23 29.23 72.59 46.88 72.59 46.88 90.23 46.88 90.23"/><polygon class="c" points="71.5 90.23 53.87 90.23 53.87 72.59 71.5 72.59 71.5 90.23 71.5 90.23"/><polygon class="c" points="96.14 90.23 78.5 90.23 78.5 72.59 96.14 72.59 96.14 90.23 96.14 90.23"/><polygon class="c" points="120.78 90.23 103.14 90.23 103.14 72.59 120.78 72.59 120.78 90.23 120.78 90.23"/><polygon class="c" points="46.88 113.52 29.23 113.52 29.23 95.87 46.88 95.87 46.88 113.52 46.88 113.52"/><polygon class="c" points="71.5 113.52 53.87 113.52 53.87 95.87 71.5 95.87 71.5 113.52 71.5 113.52"/><polygon class="c" points="96.14 113.52 78.5 113.52 78.5 95.87 96.14 95.87 96.14 113.52 96.14 113.52"/><polygon class="c" points="120.78 113.52 103.14 113.52 103.14 95.87 120.78 95.87 120.78 113.52 120.78 113.52"/><polygon class="c" points="46.88 136.8 29.23 136.8 29.23 119.16 46.88 119.16 46.88 136.8 46.88 136.8"/><polygon class="c" points="71.5 136.8 53.87 136.8 53.87 119.16 71.5 119.16 71.5 136.8 71.5 136.8"/><polygon class="c" points="96.14 136.8 78.5 136.8 78.5 119.16 96.14 119.16 96.14 136.8 96.14 136.8"/><polygon class="c" points="120.78 136.8 103.14 136.8 103.14 119.16 120.78 119.16 120.78 136.8 120.78 136.8"/><path class="d" d="M62.69,33.68a5.2,5.2,0,1,1,5.2-5.2,5.2,5.2,0,0,1-5.2,5.2ZM38,33.68a5.2,5.2,0,1,1,5.2-5.2,5.21,5.21,0,0,1-5.2,5.2ZM19.93,15.05A18.94,18.94,0,0,0,1,34V62.42H75V15.05Z"/><path class="e" d="M112,33.67a5.2,5.2,0,1,1,5.2-5.2,5.2,5.2,0,0,1-5.2,5.2Zm-24.63,0a5.2,5.2,0,1,1,5.2-5.2,5.2,5.2,0,0,1-5.2,5.2ZM145.1,22.49a18.38,18.38,0,0,0-3.6-3.61s-.08,0-.1-.07a19.06,19.06,0,0,0-11.35-3.76H75V62.43h74V34a18.93,18.93,0,0,0-3.9-11.51Z"/><path class="f" d="M38.05,22.61a5.87,5.87,0,1,0,5.87,5.87,5.88,5.88,0,0,0-5.87-5.87Zm0,14.34a8.48,8.48,0,1,1,8.47-8.47A8.48,8.48,0,0,1,38.05,37Z"/><path class="g" d="M38,3v22.9a3.05,3.05,0,0,1-3-3.05V6.06a3,3,0,0,1,3-3Z"/><path class="f" d="M41.12,6.06V22.87a3.05,3.05,0,0,1-3,3.05H38V3h.06a3,3,0,0,1,3,3Z"/><path class="f" d="M62.68,22.61a5.87,5.87,0,1,0,5.87,5.87,5.87,5.87,0,0,0-5.87-5.87Zm0,14.34a8.48,8.48,0,1,1,8.48-8.47A8.48,8.48,0,0,1,62.68,37Z"/><path class="g" d="M62.68,3v22.9a3.05,3.05,0,0,1-3-3.05V6.06a3,3,0,0,1,3-3Z"/><path class="f" d="M65.78,6.06V22.87a3.05,3.05,0,0,1-3,3.05h-.07V3h.07a3,3,0,0,1,3,3Z"/><path class="f" d="M87.32,22.61a5.87,5.87,0,1,0,5.87,5.87,5.87,5.87,0,0,0-5.87-5.87Zm0,14.34a8.48,8.48,0,1,1,8.47-8.47A8.48,8.48,0,0,1,87.32,37Z"/><path class="f" d="M112,22.61a5.87,5.87,0,1,0,5.87,5.87A5.87,5.87,0,0,0,112,22.61ZM112,37a8.48,8.48,0,1,1,8.48-8.47A8.48,8.48,0,0,1,112,37Z"/><path class="g" d="M87.32,3v22.9a3.05,3.05,0,0,1-3-3.05V6.06a3,3,0,0,1,3-3Z"/><path class="f" d="M90.41,6.06V22.87a3.05,3.05,0,0,1-3,3.05h-.06V3h.06a3,3,0,0,1,3,3Z"/><path class="g" d="M112,3v22.9a3.05,3.05,0,0,1-3-3.05V6.06a3,3,0,0,1,3-3Z"/><path class="f" d="M115.05,6.06V22.87a3.05,3.05,0,0,1-3,3.05H112V3H112a3,3,0,0,1,3,3Z"/></svg>