<svg xmlns="http://www.w3.org/2000/svg" viewBox="0 0 150 150"><defs><style>.a{fill:#d2d1cf;}.b{fill:#fff;}.c{fill:#f9de69;}.d{fill:#fcaf17;}.e{fill:#62b792;}.f{fill:#94d0a9;}.g{fill:#a09f9f;}.h{fill:#ef3c3a;}.i{fill:#b5b5b6;}</style></defs><path class="a" d="M138.12,122.57a6.68,6.68,0,0,1-6.68,6.68H14a6.68,6.68,0,0,1-6.68-6.68V29.23A6.68,6.68,0,0,1,14,22.55H131.44a6.68,6.68,0,0,1,6.68,6.68v93.34Z"/><path class="b" d="M142.73,120.07c0,16-12.44,28.93-27.79,28.93s-27.78-13-27.78-28.93S99.6,91.14,114.94,91.14s27.79,13,27.79,28.93Z"/><path class="c" d="M116.07,139.83a22.15,22.15,0,1,1,22.15-22.14,22.16,22.16,0,0,1-22.15,22.14Z"/><path class="d" d="M128.18,108.88a1.3,1.3,0,0,0-1.89,0l-12.7,13.81-7.69-9.23a1.31,1.31,0,0,0-1.89-.09,1.51,1.51,0,0,0-.44,1,1.57,1.57,0,0,0,.35,1l9.58,11.48,14.69-16a1.57,1.57,0,0,0,0-2.06Z"/><path class="e" d="M138.16,34.2a4.87,4.87,0,0,1-4.87,4.87H12.15A4.88,4.88,0,0,1,7.27,34.2V14.76a4.87,4.87,0,0,1,4.88-4.87H133.29a4.86,4.86,0,0,1,4.87,4.87V34.2Z"/><path class="f" d="M138.16,32.19a4.69,4.69,0,0,1-4.87,4.47H12.15a4.7,4.7,0,0,1-4.88-4.47V14.35a4.69,4.69,0,0,1,4.88-4.46H133.29a4.68,4.68,0,0,1,4.87,4.46V32.19Z"/><path class="b" d="M34.11,18.83a4.71,4.71,0,1,1-4.71-4.71,4.71,4.71,0,0,1,4.71,4.71Z"/><path class="b" d="M62.36,18.83a4.71,4.71,0,1,1-4.71-4.71,4.71,4.71,0,0,1,4.71,4.71Z"/><path class="b" d="M90.61,18.83a4.71,4.71,0,1,1-4.71-4.71,4.71,4.71,0,0,1,4.71,4.71Z"/><path class="b" d="M118.85,18.83a4.71,4.71,0,1,1-4.7-4.71,4.71,4.71,0,0,1,4.7,4.71Z"/><path class="g" d="M30.91,18.21a1.52,1.52,0,0,1-1.51,1.51h0a1.51,1.51,0,0,1-1.5-1.51V2.51A1.5,1.5,0,0,1,29.4,1h0a1.51,1.51,0,0,1,1.51,1.51v15.7Z"/><path class="g" d="M59.16,18.21a1.52,1.52,0,0,1-1.51,1.51h0a1.52,1.52,0,0,1-1.51-1.51V2.51A1.51,1.51,0,0,1,57.65,1h0a1.51,1.51,0,0,1,1.51,1.51v15.7Z"/><path class="g" d="M87.4,18.21a1.51,1.51,0,0,1-1.5,1.51h0a1.52,1.52,0,0,1-1.51-1.51V2.51A1.51,1.51,0,0,1,85.9,1h0a1.5,1.5,0,0,1,1.5,1.51v15.7Z"/><path class="g" d="M115.65,18.21a1.51,1.51,0,0,1-1.5,1.51h0a1.52,1.52,0,0,1-1.51-1.51V2.51A1.51,1.51,0,0,1,114.15,1h0a1.5,1.5,0,0,1,1.5,1.51v15.7Z"/><path class="b" d="M30.05,58.05a1,1,0,0,1-1,1H16.66a1,1,0,0,1-1-1V49.32a1,1,0,0,1,1-1h12.4a1,1,0,0,1,1,1v8.73Z"/><path class="b" d="M47,58.05a1,1,0,0,1-1,1H33.58a1,1,0,0,1-1-1V49.32a1,1,0,0,1,1-1H46a1,1,0,0,1,1,1v8.73Z"/><path class="b" d="M63.9,58.05a1,1,0,0,1-1,1H50.51a1,1,0,0,1-1-1V49.32a1,1,0,0,1,1-1h12.4a1,1,0,0,1,1,1v8.73Z"/><path class="b" d="M80.82,58.05a1,1,0,0,1-1,1H67.43a1,1,0,0,1-1-1V49.32a1,1,0,0,1,1-1h12.4a1,1,0,0,1,1,1v8.73Z"/><path class="b" d="M97.82,58.05a1,1,0,0,1-1,1H84.43a1,1,0,0,1-1-1V49.32a1,1,0,0,1,1-1h12.4a1,1,0,0,1,1,1v8.73Z"/><path class="h" d="M114.74,58.05a1,1,0,0,1-1,1h-12.4a1,1,0,0,1-1-1V49.32a1,1,0,0,1,1-1h12.4a1,1,0,0,1,1,1v8.73Z"/><path class="h" d="M131.67,58.05a1,1,0,0,1-1,1H118.27a1,1,0,0,1-1-1V49.32a1,1,0,0,1,1-1h12.41a1,1,0,0,1,1,1v8.73Z"/><path class="b" d="M30.05,71.44a1,1,0,0,1-1,1H16.66a1,1,0,0,1-1-1V62.71a1,1,0,0,1,1-1h12.4a1,1,0,0,1,1,1v8.73Z"/><path class="b" d="M47,71.44a1,1,0,0,1-1,1H33.58a1,1,0,0,1-1-1V62.71a1,1,0,0,1,1-1H46a1,1,0,0,1,1,1v8.73Z"/><path class="b" d="M63.9,71.44a1,1,0,0,1-1,1H50.51a1,1,0,0,1-1-1V62.71a1,1,0,0,1,1-1h12.4a1,1,0,0,1,1,1v8.73Z"/><path class="b" d="M80.82,71.44a1,1,0,0,1-1,1H67.43a1,1,0,0,1-1-1V62.71a1,1,0,0,1,1-1h12.4a1,1,0,0,1,1,1v8.73Z"/><path class="b" d="M97.82,71.44a1,1,0,0,1-1,1H84.43a1,1,0,0,1-1-1V62.71a1,1,0,0,1,1-1h12.4a1,1,0,0,1,1,1v8.73Z"/><path class="h" d="M114.74,71.44a1,1,0,0,1-1,1h-12.4a1,1,0,0,1-1-1V62.71a1,1,0,0,1,1-1h12.4a1,1,0,0,1,1,1v8.73Z"/><path class="h" d="M131.67,71.44a1,1,0,0,1-1,1H118.27a1,1,0,0,1-1-1V62.71a1,1,0,0,1,1-1h12.41a1,1,0,0,1,1,1v8.73Z"/><path class="b" d="M30.05,84.88a1,1,0,0,1-1,1H16.66a1,1,0,0,1-1-1V76.15a1,1,0,0,1,1-1h12.4a1,1,0,0,1,1,1v8.73Z"/><path class="b" d="M47,84.88a1,1,0,0,1-1,1H33.58a1,1,0,0,1-1-1V76.15a1,1,0,0,1,1-1H46a1,1,0,0,1,1,1v8.73Z"/><path class="b" d="M63.9,84.88a1,1,0,0,1-1,1H50.51a1,1,0,0,1-1-1V76.15a1,1,0,0,1,1-1h12.4a1,1,0,0,1,1,1v8.73Z"/><path class="b" d="M80.82,84.88a1,1,0,0,1-1,1H67.43a1,1,0,0,1-1-1V76.15a1,1,0,0,1,1-1h12.4a1,1,0,0,1,1,1v8.73Z"/><path class="b" d="M30.05,98.06a1,1,0,0,1-1,1H16.66a1,1,0,0,1-1-1V89.33a1,1,0,0,1,1-1h12.4a1,1,0,0,1,1,1v8.73Z"/><path class="b" d="M47,98.06a1,1,0,0,1-1,1H33.58a1,1,0,0,1-1-1V89.33a1,1,0,0,1,1-1H46a1,1,0,0,1,1,1v8.73Z"/><path class="b" d="M63.9,98.06a1,1,0,0,1-1,1H50.51a1,1,0,0,1-1-1V89.33a1,1,0,0,1,1-1h12.4a1,1,0,0,1,1,1v8.73Z"/><path class="b" d="M80.82,98.06a1,1,0,0,1-1,1H67.43a1,1,0,0,1-1-1V89.33a1,1,0,0,1,1-1h12.4a1,1,0,0,1,1,1v8.73Z"/><path class="b" d="M97.82,84.88a1,1,0,0,1-1,1H84.43a1,1,0,0,1-1-1V76.15a1,1,0,0,1,1-1h12.4a1,1,0,0,1,1,1v8.73Z"/><path class="h" d="M114.74,84.88a1,1,0,0,1-1,1h-12.4a1,1,0,0,1-1-1V76.15a1,1,0,0,1,1-1h12.4a1,1,0,0,1,1,1v8.73Z"/><path class="h" d="M131.67,84.88a1,1,0,0,1-1,1H118.27a1,1,0,0,1-1-1V76.15a1,1,0,0,1,1-1h12.41a1,1,0,0,1,1,1v8.73Z"/><path class="i" d="M80.74,119.57a1.52,1.52,0,0,1-1.52,1.51h-62a1.52,1.52,0,0,1-1.52-1.51V106.78a1.52,1.52,0,0,1,1.52-1.51h62a1.52,1.52,0,0,1,1.52,1.51v12.79Z"/></svg>