<svg xmlns="http://www.w3.org/2000/svg" viewBox="0 0 150 150"><defs><style>.a{fill:#daedef;}.b{fill:#4da046;}.c{fill:#f04f32;}.d{fill:#25773c;}.e{fill:#ffc732;}.f{fill:#b6bfc1;}.g{fill:#8c8b8b;}.h{fill:#5b5a5b;}.i{fill:#c6cdcd;}.j{fill:#8fa6aa;}</style></defs><path class="a" d="M100.38,138.22H3.15A2.15,2.15,0,0,1,1,136.07V13.93a2.15,2.15,0,0,1,2.15-2.15H69.69l32.85,32.85v91.44a2.16,2.16,0,0,1-2.16,2.15Z"/><polygon class="b" points="103.99 93.62 88.26 83.47 127.49 22.69 143.22 32.84 103.99 93.62 103.99 93.62"/><path class="c" d="M144.76,13.36l-.16-.1A9.27,9.27,0,0,0,131.79,16l-4.3,6.67,15.73,10.15,4.3-6.67a9.27,9.27,0,0,0-2.76-12.81Z"/><polygon class="d" points="141.43 35.6 125.7 25.45 127.49 22.69 143.22 32.84 141.43 35.6 141.43 35.6"/><path class="e" d="M114.82,59.67l-.08-.05a4.26,4.26,0,0,1-1.27-5.88l20.62-32A4.27,4.27,0,0,1,140,20.51l.07,0a4.25,4.25,0,0,1,1.27,5.89l-20.62,32a4.26,4.26,0,0,1-5.88,1.27Z"/><polygon class="f" points="87.5 107.67 82.26 104.28 88.26 83.47 103.99 93.62 87.5 107.67 87.5 107.67"/><polygon class="g" points="105.54 91.21 89.82 81.06 88.26 83.47 103.99 93.62 105.54 91.21 105.54 91.21"/><path class="h" d="M80.8,112.17h0a1.85,1.85,0,0,1-.71-2.22l2.2-5.66,5.1,3.29-4.25,4.34a1.82,1.82,0,0,1-2.31.26Z"/><path class="i" d="M72.6,44.63h29.94L69.69,11.78V41.71a2.91,2.91,0,0,0,2.91,2.92Z"/><polygon class="j" points="80.42 58.65 23.11 58.65 23.11 55.27 80.42 55.27 80.42 58.65 80.42 58.65"/><polygon class="j" points="67.09 70.47 23.11 70.47 23.11 67.08 67.09 67.08 67.09 70.47 67.09 70.47"/><polygon class="j" points="67.09 97.26 23.11 97.26 23.11 93.88 67.09 93.88 67.09 97.26 67.09 97.26"/><polygon class="j" points="73.32 111.9 23.11 111.9 23.11 108.51 73.32 108.51 73.32 111.9 73.32 111.9"/></svg>