<svg xmlns="http://www.w3.org/2000/svg" viewBox="0 0 150 150"><defs><style>.a{fill:#19a5c7;}.b{fill:#c7e5e1;}.c{fill:#9d9d9d;}.d{fill:#0895a3;}.e{fill:#5fab45;}</style></defs><path class="a" d="M134.41,1.21,114.83,93.38l-7.32-1.55L123.22,8.49a9.44,9.44,0,0,1,11.19-7.28Z"/><polygon class="b" points="114.83 93.38 109.38 119.06 102.06 117.5 107.51 91.83 114.83 93.38 114.83 93.38"/><polygon class="c" points="122.36 94.98 116.9 120.66 109.38 119.06 114.83 93.38 122.36 94.98 122.36 94.98"/><path class="d" d="M142.58,17.3l-1.78-.38,1.06-4.47a9.43,9.43,0,0,0-7.26-11.2l-.19,0L114.83,93.38l7.53,1.6,17.78-75.26.88.19a.51.51,0,0,1,.4.61L132.06,64.6a1.64,1.64,0,0,0,1.26,2h0a1.63,1.63,0,0,0,1.94-1.26l9.47-44.59v0a2.84,2.84,0,0,0-2.19-3.37Z"/><polygon class="e" points="116.3 123.49 101.45 120.34 102.06 117.5 116.9 120.66 116.3 123.49 116.3 123.49"/><polygon class="b" points="108.78 121.89 104.77 140.79 103.33 140.49 101.45 120.34 108.78 121.89 108.78 121.89"/><polygon class="c" points="116.3 123.49 106.41 141.14 104.77 140.79 108.78 121.89 116.3 123.49 116.3 123.49"/><path class="e" d="M103.15,149h0a1.56,1.56,0,0,1-1.2-1.85l1.4-6.63,3.08.66-1.4,6.63a1.57,1.57,0,0,1-1.85,1.2Z"/><path class="e" d="M74.33,33.37c-.75,2.33-3.85,6.18-5.93,2.48a5.71,5.71,0,0,1,0-6A7.13,7.13,0,0,1,72,27.26a2.87,2.87,0,0,1,1.91-.13c2.16.83.85,4.74.41,6.24Zm-.79,19.18c4.86-1.14,5.73-6.52,5.67-10.77,0-3.51-.06-9.25-1.82-13.08C76.09,25.9,73.86,24.13,70,25c-4.39,1-5.8,5.87-5,9.62.58,2.63,3.54,5.57,6.42,5.12s4.28-2.73,5-5.37a31.16,31.16,0,0,1,.09,10.29,6.87,6.87,0,0,1-5,5.41c-1,.26-3.09.47-4-.24s-.39-2.32-1.59-2.84c-2.33-1-2.28,2.26-1.4,3.43,2.22,3,5.87,2.86,9.07,2.11Z"/><path class="e" d="M7.3,43.58c3.14,2.1,7.81.21,11.15-.21.37,2.8.82,5.54,1.14,8.34.1.82.72,1.8,1.52,1,.49-.5,0-2.53-.05-3.12-.23-2.6-.79-13.67-1.5-15.82-.24-.74-.58-1.12-1.07-.84S18,35,18,35.56a32.26,32.26,0,0,0,.2,5.47c0-.21-8.57,2.27-9.15.76-.47-1.24,1.1-3.48,1.73-4.44,2-3.09,4.69-5.64,6.85-8.61.43-.59,1.92-2,1.66-2.81-.38-1.18-1.67-.24-2.36.24a15,15,0,0,0-2.68,2.42,53.54,53.54,0,0,0-4.33,5.82A29.38,29.38,0,0,0,7.3,38.48c-.61,1.34-1.57,4.05,0,5.1Z"/><path class="e" d="M30.83,30.79c2.07-1.94,5.08.25,6.33,2.08A12.2,12.2,0,0,1,39,38.75c.3,3.48-.1,8.68-3.1,11-5.47,4.3-8.27-5.44-8.25-9,0-3,1-7.82,3.22-10Zm5.19,22a5.63,5.63,0,0,0,3.17-2c3.42-4.07,2.57-11.12.86-15.7-1-2.69-2.62-5.54-5.06-6.75A5.88,5.88,0,0,0,30.9,28,7.08,7.08,0,0,0,26.43,32C23.06,39,25.21,55,36,52.78Z"/><path class="e" d="M45.18,28.61a71.81,71.81,0,0,0,10.68-.48c-4.93,5.68-4.35,15.81-6.8,22.52-.45,1.22,1.87,3.24,2.35,1.9C54.3,44.6,52.74,31.19,62,27.27c1.33-.56-.34-2.59-1.42-2.38a115.65,115.65,0,0,1-16.07,1.77c-1.25.07-.15,1.92.72,1.95Z"/><path class="e" d="M79.84,86.12c-.09-3.44-1.71-7-5-8.33a5.63,5.63,0,0,0-5.16.39,88.64,88.64,0,0,1,.11-9.64,46.81,46.81,0,0,0,8.59-1c.92-.18-.15-1.8-.84-1.76-1.73.1-9.28.57-10.16,1.77-.47.62.28,8.66.66,12.5a1.17,1.17,0,0,0,1.8.86C72,79.45,74,79.56,76,81.46a5.4,5.4,0,0,1-.59,8,7.38,7.38,0,0,1-5.26,1.42c-2.2-.23-3.34-1.82-5.28-2.4-1.19-.36-2,.39-1.27,1.54C67,95.65,80,93.48,79.84,86.12Z"/><path class="e" d="M11.12,90.1c-1.45-1.36,1.72-3.82,2.53-4.68,3.54-3.74,11-13.18,4.53-17.63C15.43,65.88,7.93,65.51,7.62,70.2a4.3,4.3,0,0,0,.5,2.14c.19.39,1.44,1.11,1.44.22,0-3.08,3.9-4.27,6.42-3.41,4.41,1.51,1,7.07-.62,9.53C13.14,82,9.45,84.33,7.84,88.05c-3.08,7.1,14.39,5.1,17.11,4.12,1.65-.6-.64-2-1.32-2.23l-.15,0c-2.42-.58-4.73.54-7.14.63-1.41.06-4.08.64-5.22-.43Z"/><path class="e" d="M42.28,142.69l-.15,0c-2.42-.57-4.74.54-7.14.64-1.42.06-4.08.63-5.23-.44-1.44-1.36,1.72-3.82,2.54-4.67,3.54-3.74,11-13.19,4.52-17.64-2.75-1.9-10.24-2.28-10.56,2.42a4.36,4.36,0,0,0,.51,2.14c.19.38,1.44,1.1,1.43.22,0-3.08,3.91-4.27,6.42-3.41,4.41,1.5,1,7.06-.61,9.52-2.22,3.33-5.92,5.66-7.53,9.38-3.07,7.1,14.4,5.1,17.12,4.11,1.65-.6-.65-2-1.32-2.23Z"/><path class="e" d="M47.35,80.38c1.9-2.25,6.07-1.33,8.45-.58,2,.62,3.7,2,3.55,4.19-.21,3.16-2.83,5.32-5.59,6.41-3.56,1.4-6-.44-7.12-4-.57-1.83-.62-4.44.71-6ZM51.51,93.1c8,1.25,13.7-9.15,6.78-14.22-2.37-1.74-8-3.09-11.27-1.66,0-2,1.7-6.59,4.45-8.11,1.1-.61,4.5-1.74,2.74-3.46-2.23-2.18-5.88,2.51-6.8,4.09a25.67,25.67,0,0,0-2.86,7.14c-1.48,6.56-.94,15,7,16.22Z"/><path class="e" d="M34.28,79.8c.48.36,1,.71,1.61,1.11C40.42,84,40.36,90.26,34.43,91s-3-6-2.22-7.9a17.2,17.2,0,0,1,2.07-3.31Zm-3.19-6.53a5.47,5.47,0,0,1,.16-4.63A3.66,3.66,0,0,1,33.1,67c1.36-.5,2.92.15,4,1.75.83,1.23.35,2.27-.38,3.39-.58.91-2.37,4.32-3.47,4.25s-1.84-2.22-2.15-3.07ZM30,91c2.18,3,8.28,3,10.33-.18,1.22-1.93,1.76-4.17.6-6.3-1.34-2.48-3.79-4-5.67-5.92,3.06-3.94,6.45-8.07,3.5-12.42-2.14-3.16-6.92-2.36-8.87.58-2.34,3.53-.71,8.75,2.6,11.19-.21.31-.45.59-.65.91C29.64,82.17,27.32,87.27,30,91Z"/><path class="e" d="M75.44,125.62c0-.57-.35-1.9-1.19-1.58s-.67,2-.72,2.69a23.71,23.71,0,0,0,.22,4.61c.09.77.15,1.54.22,2.31a27.7,27.7,0,0,1-8,1c-2.72-.12.92-6.39,1.57-7.55a64,64,0,0,1,6.67-9.26c.41-.5-.51-1.59-1-1.12a48.62,48.62,0,0,0-8.47,11.05c-1.14,2.1-2.44,5-1.09,7.26,1.69,2.84,7.39,1.47,10.43.61.16,2.86.19,5.72.08,8.64,0,1.24,2.19,2.58,2.15.88,0-3.77-.14-7.5-.35-11.24-.15-2.76-.34-5.52-.55-8.29Z"/><path class="e" d="M54.69,120.19c0-.77-1.26-1.88-2-1.71s-1.52,2-1.91,2.75L49,124.52c-.37.69-1,3.14.52,1.68.9-.86,1.59-2.15,2.52-2.89.79.75,1,21,1.15,21.38a2.11,2.11,0,0,0,2.28,1.23,1.13,1.13,0,0,0,.9-1.4c0-.2-1.5-20.42-1.68-24.33Z"/><path class="e" d="M16.11,120.19c0-.77-1.26-1.88-2-1.71-.94.2-1.52,2-1.92,2.75-.57,1.1-1.15,2.19-1.73,3.29-.37.69-1,3.14.52,1.68.9-.86,1.59-2.15,2.52-2.89.8.75,1,21,1.16,21.38a2.1,2.1,0,0,0,2.28,1.23,1.13,1.13,0,0,0,.89-1.4c0-.2-1.5-20.42-1.68-24.33Z"/><polygon class="e" points="5.16 107.06 80.48 107.06 80.48 104.99 5.16 104.99 5.16 107.06 5.16 107.06"/><path class="e" d="M96.48,39.43a48.88,48.88,0,0,0-7.74.28c-1.68.19-3.68.28-5,1.84-.12.14-.06.48.1.52,1.87.49,3.88-.41,5.78-.54,2.29-.15,4.59,0,6.88,0,1,0,1-2,0-2.06Z"/></svg>