<svg xmlns="http://www.w3.org/2000/svg" viewBox="0 0 150 150"><defs><style>.a{fill:#b5ceca;}.b{fill:#c7e5e1;}.c{fill:#76b543;}.d{fill:#686868;}.e{fill:#bad192;}.f{fill:#748260;}.g{fill:#91a379;}</style></defs><path class="a" d="M149,16.16V118.23a7.91,7.91,0,0,1-7.91,7.91H75V8.25h66.09A7.9,7.9,0,0,1,149,16.16Z"/><path class="b" d="M75,8.25V126.14H8.91A7.91,7.91,0,0,1,1,118.23V16.16A7.9,7.9,0,0,1,8.91,8.25Z"/><polygon class="c" points="119.93 68.89 30.07 68.89 30.07 27.52 119.93 27.52 119.93 68.89 119.93 68.89"/><polygon class="d" points="40.7 82.87 32.5 82.87 32.5 111.11 40.7 111.11 40.7 91.07 109.3 91.07 109.3 111.11 117.5 111.11 117.5 82.87 40.7 82.87 40.7 82.87"/><polygon class="e" points="105.81 137.51 44.19 137.51 44.19 87.18 105.81 87.18 105.81 137.51 105.81 137.51"/><path class="f" d="M97.63,87.18v35.47a8.57,8.57,0,0,0-6.56,6.56H58.92a8.57,8.57,0,0,0-6.56-6.56V87.18H50.53v37.1a6.48,6.48,0,0,1,1.83.26A6.74,6.74,0,0,1,57,129.21a6.41,6.41,0,0,1,.26,1.82H92.7a6.07,6.07,0,0,1,.26-1.82,6.72,6.72,0,0,1,4.67-4.67,6.48,6.48,0,0,1,1.83-.26V87.18Z"/><path class="f" d="M63.92,99a6.56,6.56,0,0,0,6.14,5,6.69,6.69,0,0,0,6.34-6,4.43,4.43,0,0,0,.06-.51A3.8,3.8,0,0,1,79.93,94c1.88,0,3.42,1.82,3.5,4.07,0,.06,0,.11,0,.17a4.44,4.44,0,0,1-1.8,3.7L83.73,104a7.34,7.34,0,0,0,2.6-5H87.4v-3H86.07a6.57,6.57,0,0,0-6.14-5c-3.34,0-6.1,2.86-6.4,6.49,0,.18-.07.34-.11.51a3.37,3.37,0,0,1-6.72,0,5.08,5.08,0,0,1-.15-1.18,4.42,4.42,0,0,1,1.8-3.7l-2.09-2.09a7.34,7.34,0,0,0-2.6,5H62.59v3Z"/><polygon class="g" points="102.8 141.75 47.2 141.75 47.2 137.51 102.8 137.51 102.8 141.75 102.8 141.75"/><polygon class="d" points="57.33 56.74 57.33 40.74 53.9 40.74 54.54 37.18 61.67 37.18 61.67 56.74 57.33 56.74 57.33 56.74"/><path class="d" d="M72.44,47a12,12,0,0,0,.68,4.54c.45,1.1,1.08,1.65,1.87,1.65s1.42-.54,1.88-1.63A12.3,12.3,0,0,0,77.55,47a12.41,12.41,0,0,0-.67-4.58c-.45-1.09-1.08-1.64-1.89-1.64s-1.41.55-1.86,1.65A12.2,12.2,0,0,0,72.44,47ZM68,47q0-4.91,1.87-7.66a6.2,6.2,0,0,1,10.31,0A13.48,13.48,0,0,1,82,47a13.52,13.52,0,0,1-1.88,7.65,6.19,6.19,0,0,1-10.31,0Q68,51.85,68,47Z"/><path class="d" d="M88.44,47a12,12,0,0,0,.68,4.54q.67,1.65,1.86,1.65c.81,0,1.43-.54,1.89-1.63A12.3,12.3,0,0,0,93.55,47a12.38,12.38,0,0,0-.68-4.58c-.45-1.09-1.08-1.64-1.89-1.64s-1.4.55-1.86,1.65A12.43,12.43,0,0,0,88.44,47ZM84,47q0-4.91,1.87-7.66a6.19,6.19,0,0,1,10.3,0Q98,42.07,98,47a13.44,13.44,0,0,1-1.89,7.65,6.18,6.18,0,0,1-10.3,0Q84,51.85,84,47Z"/></svg>